<?xml version="1.0" encoding="utf-8"?>
<!-- Generator: Adobe Illustrator 22.1.0, SVG Export Plug-In . SVG Version: 6.00 Build 0)  -->
<svg version="1.1" xmlns="http://www.w3.org/2000/svg" xmlns:xlink="http://www.w3.org/1999/xlink" x="0px" y="0px"
	 viewBox="0 0 792 612" style="enable-background:new 0 0 792 612;" xml:space="preserve">
<style type="text/css">
	.st0{fill:#0A6343;}
	.st1{display:none;}
	.st2{display:inline;fill:#9EB143;}
	.st3{display:inline;fill:#0A6343;}
	.st4{display:inline;fill:#0B3E35;}
	.st5{display:inline;fill:#259D60;}
	.st6{display:inline;fill:url(#SVGID_1_);}
	.st7{fill:url(#SVGID_2_);}
	.st8{fill:url(#SVGID_3_);}
	.st9{fill:url(#SVGID_4_);}
	.st10{fill:url(#SVGID_5_);}
	.st11{fill:url(#SVGID_6_);}
	.st12{fill:#0B3E35;}
</style>
<g id="Logo_name">
	<g>
		<path class="st0" d="M686.4,465.7c-1.7,0-3.4,0.1-5,0c-1.9-0.1-2.6,0.7-2.8,2.5c-0.8,6.7-1.6,13.5-2.4,20.2
			c-0.3,2.6-0.9,3.1-3.5,3.1c-3.2-0.1-6.4-0.1-9.6-0.5c-2.5-0.3-3-1.2-2.7-3.6c1.1-9.2,2.4-18.3,3.5-27.5c0.7-5.9,1.2-11.8,1.9-17.7
			c2.9-22.8,5.9-45.7,8.9-68.5c0.5-3.7,0.9-7.4,1.6-11c0.1-0.7,1-1.7,1.7-1.9c6.1-1.5,12.3-2.9,18.4-4.2c3.3-0.7,4.1-0.2,4.5,3.1
			c1.9,16.5,3.7,33,5.6,49.5c1.3,11,2.6,22,3.9,33c1.3,10.8,2.7,21.7,4,32.5c0.6,4.9,0.9,9.7,1.4,14.6c0.1,0.8,0.7,1.5,1,2.2
			c0.2,0.8,0.5,1.8,0.3,2.5c-0.1,0.4-1.3,0.8-1.9,0.7c-1.1,0-2.2-0.4-3.2-0.7c-0.9-0.2-1.8-0.5-2.6-0.5c-1-0.1-2.1,0-3.2,0
			c-5.2-0.1-6-1.3-6.4-6.3c-0.3-5-1.1-10-1.7-15c-0.1-1-0.2-2-0.2-2.9c-0.1-2.3-0.7-2.9-3-3.1c-1.4-0.1-2.8-0.2-4.2-0.3
			c-1.3,0-2.7,0-4,0C686.4,465.8,686.4,465.7,686.4,465.7z M689.1,388.7c-0.3,0-0.6-0.1-0.9-0.1c-0.1,0.6-0.4,1.1-0.4,1.7
			c-0.2,1.7-0.2,3.5-0.4,5.2c-0.9,7.6-1.9,15.1-2.8,22.7c-1.1,9.4-2.1,18.9-3.3,28.4c-0.3,2.5,0.2,2.9,2.7,2.8
			c2.6-0.1,5.3,0,7.9,0.4c2.9,0.4,3.6-0.2,3.2-3.1c-1-8.5-2-17-2.8-25.4C691.1,410.4,690.1,399.6,689.1,388.7z"/>
		<path class="st0" d="M155.3,429.8c0-17.5,0-35,0-52.6c0-0.8,0-1.7,0-2.5c0-4.1,0.6-4.6,4.5-3.9c7.5,1.4,15,2.7,22.5,4.1
			c11.3,2.1,17.7,9.1,20,20.2c2.1,10,1.9,20-0.3,30c-0.9,4.1-2.7,7.8-5.7,10.8c-2.7,2.6-3.1,5.5-2.1,9c3.3,12.9,6.4,25.8,9.6,38.7
			c0.6,2.6-0.1,3.5-2.8,3.5c-3.2,0-6.3,0-9.5,0c-2.6,0-3.4-0.6-4-3c-3.1-12.4-6.2-24.8-9.3-37.2c-0.2-0.7-0.3-1.4-0.5-2
			c-0.6-2.4-1.3-2.9-3.7-2.7c-2.1,0.1-2.4,1.6-2.4,3.2c0,12,0.1,24,0.1,36c0,0.9,0,1.8,0,2.7c-0.2,2.1-1.2,3.7-3.4,3.9
			c-3.8,0.3-7.5,0.4-11.3,0.3c-0.5,0-1.3-1.1-1.5-1.8c-0.3-1,0-2.1,0-3.1C155.4,465.6,155.4,447.7,155.3,429.8
			C155.3,429.8,155.3,429.8,155.3,429.8z M187.5,408.4c-0.1,0-0.1,0-0.2,0c0-2.1,0-4.2,0-6.3c-0.1-8.3-4.9-13.2-13.2-13.4
			c-3-0.1-3.4,0.3-3.4,3.3c0.1,10.3,0.2,20.6,0.3,30.8c0,0.3,0,0.7,0,1c-0.1,1.3,0.7,1.9,1.9,2c2.3,0,4.6,0.2,6.9,0
			c4.3-0.3,6.6-2.7,6.9-6.9C187.2,415.4,187.3,411.9,187.5,408.4z"/>
		<path class="st0" d="M94.8,492.8c0-2.9,0-5.4,0-7.9c0-41,0-82,0-123c0-2.8,0.1-3.1,2.8-2.8c4.2,0.5,8.4,1.3,12.6,2.1
			c6.1,1.1,12.1,2.4,17.7,5.1c9.2,4.4,14.2,11.9,16,21.7c1.6,8.4,1.5,16.9,1,25.3c-0.3,3.7-0.3,7.4-0.9,11.1
			c-1.7,11.2-9.7,18.1-21,18.7c-2.1,0.1-4.2,0.2-6.3,0.4c-3.2,0.3-4.4,1.4-4.4,4.7c0,13,0,26.1,0,39.1c0,4.2-0.2,4.2-4.3,4.5
			c-2.6,0.2-5.3,0.8-7.9,1C98.5,492.9,96.8,492.8,94.8,492.8z M112.2,402.4C112.3,402.4,112.3,402.4,112.2,402.4
			c0.1,6.6,0.1,13.2,0.1,19.8c0,2.5,0.7,3.3,3,3.4c2.1,0.1,4.2,0.1,6.3,0c3.7-0.2,5.5-1.6,6-5.3c0.6-4.5,0.9-9.1,1-13.6
			c0.1-5.1-0.3-10.2-0.2-15.3c0.1-4.6-1.6-7.9-5.8-9.7c-2-0.9-4.2-1.4-6.4-1.9c-3-0.7-3.8,0-3.8,3.1
			C112.2,389.3,112.2,395.8,112.2,402.4z"/>
		<path class="st0" d="M262.8,433.8c0,8.5,0.1,17-0.1,25.4c-0.1,3.3-0.6,6.6-1.4,9.7c-2.5,10.2-10.3,14.9-19.7,17.5
			c-12.9,3.5-25.6-5-27.2-18.2c-0.6-4.7-0.3-9.5-0.3-14.3c-0.1-13.8-0.2-27.6-0.2-41.4c0-5.2-0.1-10.6,0.7-15.7
			c1.7-11.2,10-17.7,21.4-16.7c10,0.9,18.3,5,23.3,14.3c2.4,4.4,3.4,9.2,3.4,14.1C262.9,417,262.8,425.4,262.8,433.8z M229.8,434.7
			c0.1,0,0.2,0,0.3,0c0,6.6,0,13.2,0,19.8c0,3-0.2,6,0,9c0.2,4,2.8,6.6,6.5,7.1c5.7,0.7,10-3,10-8.8c-0.1-15.1-0.2-30.3-0.3-45.4
			c0-3.5,0.2-7,0.2-10.5c0-4.4-2.4-7.3-6.3-9.1c-4.2-2-11.1,0.5-10.7,7.3C230.3,414.2,229.8,424.5,229.8,434.7z"/>
		<path class="st0" d="M608,385.2c0-2.7,0-5.4,0-8.2c0-1.9,1-3,2.9-3.2c7.7-1.2,15.5-2.3,23.2-3.7c4.7-0.8,9.4-2,14.1-3
			c2.2-0.5,3.2,0.3,3.5,2.9c0.8,6.6-0.1,13-2.1,19.3c-4.1,13.1-8.5,26.2-12.8,39.3c-4.3,13-8.6,25.9-12.8,38.8
			c-0.3,0.8-0.5,1.6-0.7,2.4c-0.4,1.4,0,2.4,1.6,2.5c2.9,0.2,5.7,0.3,8.6,0.4c5.2,0.2,10.5,0.4,15.7,0.7c2.5,0.2,3.3,1.3,3.2,3.7
			c-0.1,3.1-0.1,6.2-0.2,9.2c-0.1,3-0.9,4-4,3.7c-7.6-0.6-15.2-1.3-22.8-1.9c-5.4-0.4-10.9-0.7-16.3-1.1c-2.5-0.2-3.3-0.9-3.6-3.4
			c-0.9-8.2,1.3-16,3.9-23.6c6.9-20.5,13.9-40.9,20.9-61.4c1.1-3.2,2.6-6.2,3.7-9.3c0.3-0.8,0.5-2.2,0-2.7c-0.6-0.6-1.9-0.8-2.8-0.7
			c-6.9,1.2-13.7,2.6-20.6,3.9c-1.7,0.3-2.6-0.3-2.5-2.1C608.1,387,608.1,386.1,608,385.2C608.1,385.2,608,385.2,608,385.2z"/>
		<path class="st0" d="M312.7,416.4c-1.5,0-3.1,0.1-4.6,0c-2.7-0.3-3.5-1.1-3.8-3.9c-0.2-1.7-0.3-3.5-0.4-5.2
			c-0.2-3-1.8-5.1-4.5-6.3c-2.9-1.3-5.8-1-8.4,0.8c-0.9,0.6-1.6,2-1.9,3.2c-1.7,6.1-0.2,11.6,4.2,16.1c4,4.2,8.3,8.1,12.7,12
			c4.3,3.9,8.6,7.8,11.6,12.9c5.3,8.9,5.5,18.1,0.8,27.2c-3.8,7.4-10.5,10.4-18.4,11c-3.6,0.3-7.4,0.2-10.8-0.6
			c-10-2.3-16.5-11-16.7-21.8c0-1.4,0-2.8,0-4.2c0-1.4,0.7-2.1,2-2.2c3.3-0.1,6.6-0.3,9.9-0.3c2.9,0,4,1.3,3.5,4.9
			c-0.7,5.1,5.7,11.4,12.1,9.7c3.8-1,5.6-3.6,5.8-7.5c0.4-6.9-2.1-12.2-7.6-16.6c-5.6-4.5-10.9-9.5-16-14.5
			c-6.2-6.1-9.7-13.5-8.9-22.5c0.3-3.1-0.1-6.3,0.8-9.2c2.1-7.3,7-11.8,14.6-13.1c7.8-1.3,15.2-0.5,21.9,4.1c5.9,4,8.7,9.7,9.4,16.6
			c0.2,2,0.2,4.1,0.1,6.1c0,2.7-0.8,3.4-3.6,3.4c-1.2,0-2.4,0-3.6,0C312.7,416.5,312.7,416.5,312.7,416.4z"/>
		<path class="st0" d="M331.7,436.5c0-14.1,0-28.2,0-42.3c0-3.9,0.5-4.3,4.4-4.2c6.6,0.2,13.3,0.2,19.9,0.6c3.2,0.2,6.5,0.8,9.7,1.8
			c8.1,2.5,11.8,8.6,13,16.7c1.2,8.3,0.9,16.5-0.5,24.7c-1.1,6.7-5.5,10.6-11.7,12.5c-5.3,1.6-10.6,3-16.3,2.6
			c-2.1-0.1-2.7,0.7-2.7,3.3c0,8.6,0.1,17.2,0.1,25.9c0,0.6,0,1.3,0,1.9c-0.1,1.6-1,2.7-2.6,2.7c-3.6,0.1-7.3,0.1-10.9,0
			c-1.9,0-2.4-1.4-2.4-3.1c0-4.4,0-8.8,0-13.2C331.6,456.4,331.6,446.4,331.7,436.5C331.6,436.5,331.6,436.5,331.7,436.5z
			 M363.5,420.5c0-2.2,0-4.3,0-6.5c0-1-0.2-1.9-0.3-2.9c-0.4-4.2-3.3-6.5-7.5-6.1c-1.4,0.1-3,0.2-4.4-0.1c-3.3-0.6-3.8-0.4-3.8,3.1
			c-0.1,7.7-0.1,15.4-0.2,23.1c0,2.7,1.1,3.9,3.8,3.9c1.6,0,3.2-0.2,4.8-0.2c4.4-0.1,7.2-2.6,7.5-7
			C363.6,425.2,363.5,422.9,363.5,420.5z"/>
		<path class="st0" d="M589,486.1c-9-0.6-18-1.2-27-1.7c-2.6-0.2-5.2-0.1-7.8-0.1c-2.9,0-3.1-0.2-3.3-3.3
			c-0.4-5.7,0.4-11.2,2.4-16.5c4.1-10.9,8.4-21.8,12.5-32.7c3.8-10.3,7.4-20.7,11.2-31c0.5-1.3,1.3-2.5,1.7-3.8
			c0.3-0.8,0.4-1.8,0.1-2.5c-0.2-0.4-1.4-0.5-2.2-0.4c-6.9,0.6-13.8,1.4-20.7,2c-3.3,0.3-3.8-0.6-3.6-3.9c0.2-2.6,0.1-5.2,0.1-7.8
			c0-1.6,0.6-2.4,2.3-2.6c10.6-1.3,21.2-2.7,31.9-4.1c2.1-0.3,4.2-0.7,6.2-0.8c2.7-0.2,3.4,0.4,3.8,3c1.1,6.3-0.2,12.3-2.3,18.1
			c-8.2,22.4-16.5,44.8-24.8,67.1c-0.2,0.5-0.4,0.9-0.5,1.4c-0.9,2.7-0.3,3.6,2.5,3.8c7.4,0.4,14.8,0.7,22.2,1.2
			c2.7,0.2,3.3,0.9,3.3,3.5c0.1,2.7,0.1,5.3,0.2,8c0,2.2-0.8,3.1-3,3.2c-1.8,0.1-3.5,0-5.3,0C589,486,589,486,589,486.1z"/>
		<path class="st0" d="M440.2,436.3c0-7.7,0-15.4,0-23.1c0-4.6,0.3-9.3,2.7-13.4c4.1-7.4,10.6-11.1,18.8-12.1
			c4.8-0.6,9.4-0.1,13.8,1.9c8.5,3.8,12.1,10.8,12.5,19.7c0.1,2,0.1,4.1,0,6.1c0,2.2-1,3.2-3.2,3.3c-2.8,0.1-5.6,0.1-8.4,0
			c-2.8,0-4-1.2-3.7-4.1c0.3-3.3,0.2-6.6-1.3-9.6c-0.2-0.4-0.3-0.8-0.6-1.1c-2.9-3.1-6.6-2.2-10.1-1.7c-2.7,0.4-4.1,2.4-4.3,5
			c-0.3,6-0.6,12-0.7,18c-0.1,10-0.1,20-0.1,30c0,1.9-0.1,3.8,0,5.7c0.2,3.9,2.2,6.6,5.6,8.3c3.2,1.5,6.1,0.7,8.9-1.2
			c2-1.4,2.7-3.5,2.8-5.8c0.1-2.3,0-4.6-0.1-6.9c-0.1-1.9,0.7-2.9,2.7-2.9c3.1,0,6.3-0.2,9.4-0.2c2.1,0,3.1,0.9,3.1,3.1
			c-0.1,4.1,0,8.3-0.7,12.4c-1.4,8.5-8.9,15-17.6,16.3c-6.1,0.9-12.2,0.2-17.7-2.2c-6.6-2.9-10.8-8.5-11.3-15.8
			c-0.7-9.8-0.6-19.7-0.8-29.6C440,436.3,440.1,436.3,440.2,436.3z"/>
		<path class="st0" d="M389.3,436.9c0-13.7,0-27.3,0-41c0-3.5,0.7-4.3,4.1-4.3c11.3-0.1,22.7-0.1,34-0.2c1.5,0,2.5,0.6,2.6,2.1
			c0.1,2.4,0.4,4.8,0.3,7.1c-0.1,3-1.2,4-4.2,4.1c-5.4,0.1-10.8,0.1-16.2,0.1c-3.9,0-4.6,0.7-4.6,4.7c0,5.3,0,10.6,0,15.9
			c0,3.1,1.1,4.2,4.2,4.2c3.9,0,7.7-0.1,11.6,0c3,0,3.9,1,3.9,4c0,1.6,0,3.2,0,4.8c0,3.4-0.9,4.4-4.3,4.5c-3.7,0.2-7.4,0.1-11.1,0.1
			c-3.8,0-4,0.2-4,4.1c0,6,0.1,12,0.1,18.1c0,2.8,0.6,3.3,3.3,3.3c5.7,0,11.5-0.1,17.2-0.1c3.5,0,4.5,1.2,4.2,4.7
			c-0.2,1.6-0.2,3.2-0.3,4.8c-0.1,3.9-0.4,4.2-4.4,4.2c-8.7,0-17.4,0-26.1,0c-2,0-3.9,0-5.9,0c-3.6,0-4.3-0.7-4.3-4.3
			C389.2,464.2,389.3,450.6,389.3,436.9z"/>
		<path class="st0" d="M511.7,461.8c0-5.7,0-11.4,0-17c-0.1-13.6-0.2-27.2-0.4-40.8c0-2.9-0.8-3.7-3.7-3.6c-2.8,0.1-5.6,0.4-8.3,0.8
			c-2.8,0.4-4.4-0.4-4.7-3.1c-0.3-2.9-0.1-5.9,0.1-8.8c0.1-0.6,1.2-1.6,2-1.7c4.3-0.6,8.6-1.2,12.9-1.6c10.4-1,20.8-1.8,31.2-2.7
			c2.9-0.3,3.2,0.3,2.9,3.1c-0.2,2.4,0,4.8-0.1,7.1c0,3.6-0.5,4-4,4.4c-3.3,0.3-6.6,0.6-9.8,0.9c-1.8,0.1-2.7,1.1-2.6,2.8
			c0,16.3,0.1,32.7,0.1,49c0,8.1,0,16.1,0,24.2c0,2.3,0,4.6,0,6.9c-0.1,1.9-1.2,2.7-3.1,2.6c-3.3-0.1-6.6-0.1-9.8-0.1
			c-1.8,0-2.6-0.9-2.6-3.3C511.7,474.6,511.7,468.2,511.7,461.8z"/>
	</g>
</g>
<g id="scheme" class="st1">
	<rect x="12.9" y="28.6" class="st2" width="64.5" height="64.5"/>
	<rect x="12.9" y="108.1" class="st3" width="64.5" height="64.5"/>
	<rect x="12.9" y="187.6" class="st4" width="64.5" height="64.5"/>
	<rect x="12.9" y="267.1" class="st5" width="64.5" height="64.5"/>
	<linearGradient id="SVGID_1_" gradientUnits="userSpaceOnUse" x1="12.8596" y1="378.8368" x2="77.3564" y2="378.8368">
		<stop  offset="0" style="stop-color:#107D51"/>
		<stop  offset="0.3654" style="stop-color:#158555"/>
		<stop  offset="0.9156" style="stop-color:#22995E"/>
		<stop  offset="1" style="stop-color:#259D60"/>
	</linearGradient>
	<rect x="12.9" y="346.6" class="st6" width="64.5" height="64.5"/>
</g>
<g id="Layer_3">
	<g>
		<linearGradient id="SVGID_2_" gradientUnits="userSpaceOnUse" x1="489.2456" y1="298.5481" x2="490.8295" y2="233.7379">
			<stop  offset="0" style="stop-color:#0A6343"/>
			<stop  offset="0.3516" style="stop-color:#167D50"/>
			<stop  offset="0.7506" style="stop-color:#21945C"/>
			<stop  offset="1" style="stop-color:#259D60"/>
		</linearGradient>
		<path class="st7" d="M512.4,298h-45.1v-52.7c0-6.2,5.1-11.3,11.3-11.3h22.5c6.2,0,11.3,5.1,11.3,11.3V298z"/>
		<linearGradient id="SVGID_3_" gradientUnits="userSpaceOnUse" x1="433.4452" y1="311.868" x2="437.6008" y2="141.8295">
			<stop  offset="0" style="stop-color:#0A6343"/>
			<stop  offset="0.127" style="stop-color:#116743"/>
			<stop  offset="0.3129" style="stop-color:#257143"/>
			<stop  offset="0.535" style="stop-color:#458243"/>
			<stop  offset="0.7829" style="stop-color:#719943"/>
			<stop  offset="1" style="stop-color:#9EB143"/>
		</linearGradient>
		<path class="st8" d="M457.8,303.4l-44.9,12.4V163.8c0-5.5,4.4-9.9,9.7-9.9h25.5c5.4,0,9.7,4.4,9.7,9.9V303.4z"/>
		<linearGradient id="SVGID_4_" gradientUnits="userSpaceOnUse" x1="380.0912" y1="335.0515" x2="383.5258" y2="194.5205">
			<stop  offset="0" style="stop-color:#0A6343"/>
			<stop  offset="0.1472" style="stop-color:#0F6543"/>
			<stop  offset="0.3145" style="stop-color:#1C6D43"/>
			<stop  offset="0.4917" style="stop-color:#337943"/>
			<stop  offset="0.6757" style="stop-color:#538943"/>
			<stop  offset="0.8632" style="stop-color:#7C9F43"/>
			<stop  offset="1" style="stop-color:#9EB143"/>
		</linearGradient>
		<path class="st9" d="M404.2,323.8l-44.7,10.7V203.3c0-4.7,4.3-8.6,9.7-8.6h25.4c5.3,0,9.7,3.8,9.7,8.6V323.8z"/>
		<linearGradient id="SVGID_5_" gradientUnits="userSpaceOnUse" x1="326.051" y1="348.1544" x2="328.6017" y2="243.7837">
			<stop  offset="0" style="stop-color:#0A6343"/>
			<stop  offset="0.2231" style="stop-color:#0D6946"/>
			<stop  offset="0.5097" style="stop-color:#14794E"/>
			<stop  offset="0.8297" style="stop-color:#20935B"/>
			<stop  offset="0.9334" style="stop-color:#259D60"/>
		</linearGradient>
		<path class="st10" d="M349.6,337.8l-44.7,9.8l0.3-97.4c0-3.4,4.3-6.2,9.6-6.2H340c5.3,0,9.6,2.8,9.6,6.2V337.8z"/>
		<linearGradient id="SVGID_6_" gradientUnits="userSpaceOnUse" x1="312.1905" y1="205.0952" x2="559.6723" y2="205.0952">
			<stop  offset="0" style="stop-color:#0A6343"/>
			<stop  offset="0.2368" style="stop-color:#0D6A46"/>
			<stop  offset="0.5832" style="stop-color:#177E50"/>
			<stop  offset="0.9954" style="stop-color:#269E60"/>
			<stop  offset="1" style="stop-color:#269E60"/>
		</linearGradient>
		<path class="st11" d="M559.7,99l-18.3-15.8c0,0-21.6,51.4-32.3,63.7l-37.8-30.5l-18.5,10.7l51.8,43c-5.5,7.4-14.4,17.4-24.7,28.7
			c-13.9,15.3-33,31.6-65.6,57.8c-23.7,19-54.1,48.7-102.1,70.5c26.2-11.9,61.4-29.3,98.9-54.6c37.4-25.2,64.9-52.2,83.8-73.7
			c14-16,29.1-35.8,43.4-59.5C546.8,125.2,553.8,111.6,559.7,99z"/>
		<path class="st12" d="M232.5,335.6c0,0,51.5,34,143.5-0.8c83-31.4,146.3-41.8,192.5-20.4c-60.3-36.9-127.9-12.4-162.5-0.7
			c-32.4,10.9-68,33.6-123.3,31.4C261.7,344.3,243.6,338.7,232.5,335.6z"/>
		<path class="st12" d="M559.7,99l-7.5,21.1c-12.6,34.1-51.9,92.9-129.2,152.5c-73.8,56.9-152.5,66-190.5,63.1
			c55.9-3.4,96.7-8.4,184.6-72.6C498.3,203.6,541.8,134.6,559.7,99z"/>
	</g>
</g>
</svg>
