<?xml version="1.0" encoding="utf-8"?>
<!-- Generator: Adobe Illustrator 22.1.0, SVG Export Plug-In . SVG Version: 6.00 Build 0)  -->
<svg version="1.1" xmlns="http://www.w3.org/2000/svg" xmlns:xlink="http://www.w3.org/1999/xlink" x="0px" y="0px"
	 viewBox="0 0 969.8 317.7" style="enable-background:new 0 0 969.8 317.7;" xml:space="preserve">
<style type="text/css">
	.st0{fill:#0A6343;}
	.st1{display:none;}
	.st2{display:inline;fill:#9EB143;}
	.st3{display:inline;fill:#0A6343;}
	.st4{display:inline;fill:#0B3E35;}
	.st5{display:inline;fill:#259D60;}
	.st6{display:inline;fill:url(#SVGID_1_);}
	.st7{display:inline;}
	.st8{fill:url(#SVGID_2_);}
	.st9{fill:url(#SVGID_3_);}
	.st10{fill:url(#SVGID_4_);}
	.st11{fill:url(#SVGID_5_);}
	.st12{fill:url(#SVGID_6_);}
	.st13{fill:#0B3E35;}
</style>
<g id="Bars">
	<g>
		<path class="st0" d="M790.4,202.6c-1.8,0-3.7,0.1-5.5,0c-2-0.1-2.9,0.8-3.1,2.8c-0.8,7.4-1.7,14.7-2.6,22c-0.4,2.8-1,3.4-3.8,3.3
			c-3.5-0.1-7-0.1-10.5-0.5c-2.7-0.3-3.3-1.3-3-3.9c1.2-10,2.6-20,3.8-30c0.8-6.4,1.3-12.9,2.1-19.3c3.2-24.9,6.4-49.7,9.7-74.6
			c0.5-4,1-8,1.7-12c0.1-0.8,1.1-1.8,1.9-2c6.7-1.6,13.4-3.1,20-4.6c3.5-0.8,4.5-0.2,4.9,3.4c2.1,18,4.1,35.9,6.1,53.9
			c1.4,12,2.8,23.9,4.2,35.9c1.4,11.8,3,23.6,4.4,35.4c0.6,5.3,0.9,10.6,1.5,15.9c0.1,0.8,0.8,1.6,1.1,2.4c0.3,0.9,0.6,1.9,0.4,2.7
			c-0.1,0.5-1.4,0.8-2.1,0.8c-1.2,0-2.3-0.5-3.5-0.7c-1-0.2-1.9-0.5-2.9-0.6c-1.1-0.1-2.3,0-3.4,0c-5.6-0.1-6.6-1.4-6.9-6.9
			c-0.3-5.5-1.3-10.9-1.9-16.3c-0.1-1.1-0.2-2.1-0.3-3.2c-0.1-2.5-0.8-3.2-3.3-3.4c-1.5-0.1-3-0.2-4.6-0.3c-1.4-0.1-2.9,0-4.3,0
			C790.4,202.7,790.4,202.6,790.4,202.6z M793.3,118.7c-0.3,0-0.7-0.1-1-0.1c-0.2,0.6-0.4,1.2-0.5,1.8c-0.2,1.9-0.3,3.8-0.5,5.7
			c-1,8.2-2.1,16.5-3.1,24.7c-1.2,10.3-2.3,20.6-3.5,30.9c-0.3,2.7,0.2,3.2,2.9,3.1c2.9-0.1,5.8,0,8.6,0.4c3.1,0.4,3.9-0.2,3.5-3.3
			c-1.1-9.2-2.2-18.5-3.1-27.7C795.5,142.4,794.4,130.6,793.3,118.7z"/>
		<path class="st0" d="M211.9,163.5c0-19.1,0-38.2,0-57.3c0-0.9,0-1.8,0-2.7c0-4.4,0.7-5,4.9-4.2c8.2,1.5,16.3,3,24.5,4.5
			c12.3,2.3,19.3,9.9,21.8,22c2.2,10.9,2.1,21.8-0.3,32.7c-1,4.5-2.9,8.5-6.2,11.8c-2.9,2.8-3.3,5.9-2.3,9.8
			c3.6,14,7,28.1,10.4,42.1c0.7,2.8-0.1,3.8-3,3.8c-3.4,0-6.9,0.1-10.3,0.1c-2.8,0-3.7-0.6-4.4-3.3c-3.4-13.5-6.8-27-10.2-40.6
			c-0.2-0.7-0.3-1.5-0.5-2.2c-0.6-2.6-1.4-3.1-4-3c-2.3,0.2-2.6,1.7-2.6,3.5c0,13.1,0.1,26.1,0.1,39.2c0,1,0,2,0,3
			c-0.2,2.3-1.3,4.1-3.7,4.3c-4.1,0.3-8.2,0.4-12.3,0.4c-0.6,0-1.4-1.2-1.6-2c-0.3-1.1-0.1-2.3-0.1-3.4c0-19.5,0-38.9,0-58.4
			C211.9,163.5,211.9,163.5,211.9,163.5z M247,140.2c-0.1,0-0.1,0-0.2,0c0-2.3,0-4.6,0-6.9c-0.1-9-5.4-14.3-14.3-14.6
			c-3.3-0.1-3.7,0.4-3.7,3.6c0.1,11.2,0.2,22.4,0.3,33.6c0,0.4,0,0.8,0,1.1c-0.1,1.5,0.7,2.1,2.1,2.1c2.5,0,5,0.2,7.5,0
			c4.7-0.3,7.2-2.9,7.6-7.6C246.6,147.8,246.8,144,247,140.2z"/>
		<path class="st0" d="M146,232.1c0-3.2,0-5.9,0-8.6c0-44.7,0-89.3,0-134c0-3,0.1-3.3,3-3c4.6,0.5,9.2,1.4,13.7,2.3
			c6.6,1.2,13.1,2.6,19.3,5.5c10,4.8,15.4,12.9,17.4,23.7c1.7,9.2,1.7,18.4,1.1,27.6c-0.3,4-0.4,8.1-1,12.1
			c-1.9,12.2-10.5,19.7-22.8,20.3c-2.3,0.1-4.6,0.2-6.8,0.4c-3.5,0.3-4.8,1.5-4.8,5.1c0,14.2,0,28.4,0,42.6c0,4.6-0.2,4.6-4.7,4.9
			c-2.9,0.2-5.7,0.8-8.6,1.1C150,232.2,148.2,232.1,146,232.1z M165,133.6c0,0,0.1,0,0.1,0c0,7.2,0,14.4,0,21.5
			c0,2.7,0.7,3.6,3.2,3.7c2.3,0.1,4.6,0.1,6.9,0c4-0.2,6-1.7,6.5-5.7c0.6-4.9,0.9-9.9,1-14.8c0.1-5.6-0.4-11.1-0.3-16.7
			c0.1-5-1.7-8.6-6.3-10.6c-2.2-1-4.6-1.5-7-2c-3.3-0.8-4.2,0-4.2,3.3C165,119.4,165,126.5,165,133.6z"/>
		<path class="st0" d="M329,167.8c0,9.2,0.1,18.5-0.1,27.7c-0.1,3.5-0.7,7.1-1.5,10.6c-2.8,11.1-11.2,16.3-21.4,19
			c-14,3.8-27.9-5.4-29.7-19.8c-0.6-5.1-0.3-10.4-0.3-15.6c-0.1-15-0.2-30.1-0.2-45.1c0-5.7-0.1-11.5,0.7-17.1
			c1.8-12.2,10.9-19.3,23.3-18.2c10.9,1,20,5.4,25.4,15.5c2.6,4.8,3.7,10,3.7,15.4C329.1,149.5,329,158.7,329,167.8z M293,168.9
			c0.1,0,0.2,0,0.3,0c0,7.2,0,14.4,0,21.5c0,3.3-0.2,6.6,0,9.8c0.2,4.3,3,7.2,7.1,7.7c6.2,0.8,10.9-3.3,10.9-9.6
			c-0.1-16.5-0.2-33-0.3-49.5c0-3.8,0.2-7.6,0.2-11.4c0-4.8-2.6-8-6.8-9.9c-4.6-2.2-12.1,0.6-11.6,7.9
			C293.6,146.5,293,157.7,293,168.9z"/>
		<path class="st0" d="M705,114.9c0-3,0-5.9,0-8.9c0-2.1,1-3.2,3.1-3.5c8.4-1.3,16.9-2.5,25.3-4c5.2-0.9,10.3-2.2,15.4-3.3
			c2.4-0.5,3.4,0.3,3.8,3.2c0.8,7.2-0.1,14.2-2.2,21c-4.5,14.3-9.2,28.6-13.9,42.8c-4.6,14.1-9.3,28.2-14,42.3
			c-0.3,0.9-0.5,1.7-0.8,2.6c-0.5,1.6,0,2.6,1.7,2.7c3.1,0.2,6.2,0.3,9.4,0.5c5.7,0.3,11.4,0.4,17.1,0.8c2.7,0.2,3.6,1.4,3.5,4.1
			c-0.1,3.4-0.1,6.7-0.2,10.1c-0.1,3.3-1,4.3-4.3,4.1c-8.3-0.6-16.6-1.4-24.9-2c-5.9-0.5-11.9-0.8-17.8-1.2c-2.7-0.2-3.6-1-3.9-3.7
			c-1-9,1.4-17.4,4.3-25.7c7.6-22.3,15.1-44.6,22.7-66.9c1.2-3.5,2.8-6.8,4.1-10.2c0.3-0.9,0.5-2.4,0-2.9c-0.6-0.6-2-0.9-3-0.7
			c-7.5,1.3-15,2.8-22.5,4.2c-1.8,0.3-2.8-0.4-2.8-2.3C705.1,116.9,705.1,115.9,705,114.9C705,114.9,705,114.9,705,114.9z"/>
		<path class="st0" d="M383.3,148.9c-1.7,0-3.4,0.1-5,0c-2.9-0.3-3.8-1.3-4.1-4.2c-0.2-1.9-0.3-3.8-0.4-5.7c-0.2-3.3-2-5.6-4.9-6.9
			c-3.2-1.4-6.3-1.1-9.1,0.8c-1,0.7-1.7,2.2-2,3.4c-1.8,6.7-0.2,12.7,4.5,17.5c4.4,4.6,9.1,8.8,13.8,13c4.7,4.2,9.4,8.5,12.7,14
			c5.7,9.7,6,19.7,0.8,29.7c-4.2,8.1-11.5,11.4-20,12c-3.9,0.3-8,0.2-11.8-0.7c-10.9-2.5-17.9-12-18.2-23.7c0-1.5,0-3.1,0-4.6
			c0-1.5,0.7-2.3,2.2-2.4c3.6-0.1,7.2-0.4,10.7-0.3c3.2,0,4.3,1.4,3.8,5.3c-0.8,5.6,6.2,12.5,13.1,10.5c4.1-1.1,6.1-3.9,6.3-8.1
			c0.4-7.5-2.3-13.3-8.3-18.1c-6.1-4.9-11.8-10.3-17.4-15.8c-6.8-6.7-10.5-14.7-9.7-24.5c0.3-3.3-0.1-6.8,0.8-10
			c2.3-7.9,7.6-12.9,15.9-14.2c8.5-1.4,16.5-0.6,23.9,4.4c6.4,4.4,9.5,10.6,10.2,18.1c0.2,2.2,0.2,4.4,0.1,6.6c0,3-0.8,3.7-3.9,3.8
			c-1.3,0-2.6,0-3.9,0C383.3,149,383.3,149,383.3,148.9z"/>
		<path class="st0" d="M404,170.8c0-15.3,0-30.7,0-46c0-4.3,0.6-4.7,4.8-4.6c7.2,0.3,14.5,0.2,21.7,0.6c3.5,0.2,7.1,0.9,10.5,2
			c8.8,2.7,12.9,9.3,14.2,18.1c1.3,9,1,18-0.5,26.9c-1.2,7.3-6,11.5-12.7,13.6c-5.7,1.8-11.6,3.3-17.7,2.8c-2.3-0.2-2.9,0.8-2.9,3.5
			c0,9.4,0.1,18.8,0.1,28.2c0,0.7,0,1.4,0,2.1c-0.1,1.8-1.1,2.9-2.9,2.9c-4,0.1-7.9,0.1-11.9,0c-2.1,0-2.6-1.6-2.6-3.3
			c0-4.8,0-9.6,0-14.4C403.9,192.5,403.9,181.6,404,170.8C404,170.8,404,170.8,404,170.8z M438.7,153.3c0-2.4,0-4.7,0-7.1
			c0-1.1-0.2-2.1-0.3-3.2c-0.5-4.6-3.6-7.1-8.1-6.7c-1.6,0.1-3.2,0.2-4.7-0.1c-3.6-0.7-4.1-0.4-4.1,3.3c-0.1,8.4-0.1,16.7-0.2,25.1
			c0,2.9,1.2,4.2,4.1,4.2c1.8,0,3.5-0.2,5.3-0.2c4.8-0.1,7.9-2.8,8.2-7.7C438.8,158.5,438.7,155.9,438.7,153.3z"/>
		<path class="st0" d="M684.3,224.8c-9.8-0.6-19.6-1.3-29.4-1.9c-2.8-0.2-5.6-0.1-8.5-0.1c-3.1,0-3.4-0.2-3.6-3.5
			c-0.5-6.2,0.4-12.2,2.6-18c4.4-11.9,9.1-23.7,13.6-35.7c4.2-11.2,8.1-22.5,12.2-33.7c0.5-1.4,1.4-2.7,1.9-4.1
			c0.3-0.9,0.5-2,0.1-2.8c-0.2-0.4-1.6-0.5-2.4-0.5c-7.5,0.7-15,1.5-22.5,2.1c-3.6,0.3-4.2-0.6-3.9-4.3c0.2-2.8,0.1-5.6,0.1-8.5
			c0-1.8,0.7-2.6,2.5-2.8c11.6-1.5,23.1-3,34.7-4.5c2.3-0.3,4.5-0.7,6.8-0.9c2.9-0.2,3.7,0.4,4.2,3.2c1.2,6.8-0.2,13.4-2.5,19.7
			c-8.9,24.4-18,48.8-27,73.1c-0.2,0.5-0.4,1-0.6,1.5c-1,2.9-0.3,3.9,2.7,4.1c8.1,0.4,16.1,0.8,24.2,1.3c2.9,0.2,3.5,1,3.6,3.9
			c0.1,2.9,0.2,5.8,0.2,8.7c0,2.4-0.9,3.4-3.2,3.5c-1.9,0.1-3.8,0-5.7,0C684.3,224.7,684.3,224.7,684.3,224.8z"/>
		<path class="st0" d="M522.2,170.5c0-8.4,0-16.8,0-25.2c0-5.1,0.4-10.1,2.9-14.6c4.5-8,11.5-12.1,20.5-13.1
			c5.2-0.6,10.2-0.1,15,2.1c9.3,4.1,13.2,11.7,13.7,21.5c0.1,2.2,0.1,4.4,0,6.6c0,2.4-1.1,3.5-3.5,3.5c-3.1,0.1-6.1,0.1-9.2,0
			c-3.1,0-4.4-1.3-4.1-4.4c0.4-3.6,0.2-7.1-1.4-10.5c-0.2-0.4-0.3-0.9-0.6-1.2c-3.2-3.4-7.2-2.4-11-1.9c-2.9,0.4-4.5,2.6-4.6,5.5
			c-0.4,6.5-0.7,13.1-0.8,19.6c-0.1,10.9-0.1,21.8-0.1,32.7c0,2.1-0.1,4.1,0,6.2c0.2,4.2,2.3,7.2,6.1,9c3.5,1.7,6.7,0.7,9.7-1.3
			c2.2-1.5,3-3.8,3.1-6.3c0.1-2.5,0-5-0.1-7.6c-0.1-2.1,0.7-3.1,2.9-3.1c3.4,0,6.9-0.2,10.3-0.2c2.3,0,3.4,1,3.3,3.4
			c-0.1,4.5,0,9.1-0.7,13.5c-1.6,9.3-9.6,16.4-19.2,17.8c-6.7,1-13.3,0.2-19.3-2.4c-7.2-3.2-11.8-9.3-12.3-17.2
			c-0.8-10.7-0.6-21.5-0.9-32.2C522,170.5,522.1,170.5,522.2,170.5z"/>
		<path class="st0" d="M466.7,171.2c0-14.9,0-29.8,0-44.6c0-3.8,0.7-4.7,4.5-4.7c12.4-0.1,24.7-0.1,37.1-0.2c1.6,0,2.7,0.7,2.8,2.3
			c0.2,2.6,0.4,5.2,0.3,7.8c-0.1,3.3-1.3,4.4-4.6,4.5c-5.9,0.1-11.8,0.1-17.6,0.1c-4.3,0-5,0.7-5,5.1c0,5.8,0,11.6,0,17.4
			c0,3.3,1.2,4.5,4.6,4.5c4.2,0,8.4-0.1,12.6,0c3.2,0.1,4.2,1.1,4.3,4.3c0,1.8,0,3.5,0,5.3c0,3.7-1,4.8-4.7,4.9
			c-4,0.2-8.1,0.1-12.1,0.1c-4.1,0-4.4,0.3-4.4,4.4c0,6.6,0.1,13.1,0.1,19.7c0,3,0.6,3.6,3.6,3.6c6.3,0,12.5-0.1,18.8-0.1
			c3.8,0,4.9,1.3,4.5,5.1c-0.2,1.7-0.3,3.5-0.3,5.2c-0.1,4.2-0.5,4.6-4.8,4.6c-9.5,0-18.9,0-28.4,0c-2.1,0-4.3,0-6.4,0
			c-3.9,0-4.7-0.8-4.7-4.6C466.7,201,466.7,186.1,466.7,171.2z"/>
		<path class="st0" d="M600.1,198.4c0-6.2,0-12.4,0-18.6c-0.1-14.8-0.3-29.6-0.5-44.4c0-3.2-0.8-4-4-3.9c-3,0.1-6.1,0.4-9.1,0.8
			c-3,0.4-4.8-0.4-5.1-3.4c-0.3-3.2-0.1-6.4,0.1-9.6c0.1-0.7,1.3-1.7,2.2-1.8c4.7-0.7,9.4-1.3,14.1-1.7c11.3-1,22.6-2,34-3
			c3.1-0.3,3.5,0.3,3.2,3.4c-0.3,2.6-0.1,5.2-0.1,7.8c0,3.9-0.5,4.4-4.4,4.8c-3.6,0.3-7.1,0.7-10.7,1c-2,0.1-2.9,1.1-2.9,3.1
			c0,17.8,0.1,35.6,0.1,53.4c0,8.8,0,17.6,0,26.3c0,2.5,0,5,0,7.5c-0.1,2.1-1.3,2.9-3.3,2.8c-3.6-0.1-7.1-0.1-10.7-0.2
			c-2,0-2.8-1-2.8-3.6C600.1,212.3,600.1,205.3,600.1,198.4z"/>
	</g>
</g>
<g id="Logo_name" class="st1">
</g>
<g id="scheme" class="st1">
	<rect x="101.7" y="-39.1" class="st3" width="64.5" height="64.5"/>
	<rect x="101.7" y="40.4" class="st4" width="64.5" height="64.5"/>
	<rect x="101.7" y="119.9" class="st5" width="64.5" height="64.5"/>
	<linearGradient id="SVGID_1_" gradientUnits="userSpaceOnUse" x1="101.7445" y1="231.6718" x2="166.2412" y2="231.6718">
		<stop  offset="0" style="stop-color:#107D51"/>
		<stop  offset="0.3654" style="stop-color:#158555"/>
		<stop  offset="0.9156" style="stop-color:#22995E"/>
		<stop  offset="1" style="stop-color:#259D60"/>
	</linearGradient>
	<rect x="101.7" y="199.4" class="st6" width="64.5" height="64.5"/>
</g>
<g id="Layer_3" class="st1">
	<g class="st7">
		<linearGradient id="SVGID_2_" gradientUnits="userSpaceOnUse" x1="550.7845" y1="55.3779" x2="551.8778" y2="10.641">
			<stop  offset="0" style="stop-color:#0A6343"/>
			<stop  offset="0.3516" style="stop-color:#167D50"/>
			<stop  offset="0.7506" style="stop-color:#21945C"/>
			<stop  offset="1" style="stop-color:#259D60"/>
		</linearGradient>
		<path class="st8" d="M566.8,55h-31.2V22c0-6.2,5.1-11.3,11.3-11.3h8.6c6.2,0,11.3,5.1,11.3,11.3V55z"/>
		<linearGradient id="SVGID_3_" gradientUnits="userSpaceOnUse" x1="512.1525" y1="64.5885" x2="515.0265" y2="-53.0052">
			<stop  offset="0" style="stop-color:#0A6343"/>
			<stop  offset="0.127" style="stop-color:#116743"/>
			<stop  offset="0.3129" style="stop-color:#257143"/>
			<stop  offset="0.535" style="stop-color:#458243"/>
			<stop  offset="0.7829" style="stop-color:#719943"/>
			<stop  offset="1" style="stop-color:#9EB143"/>
		</linearGradient>
		<path class="st9" d="M529,58.7L498,67.3V-37.8c0-3.8,3-6.8,6.7-6.8h17.6c3.7,0,6.7,3.1,6.7,6.8V58.7z"/>
		<linearGradient id="SVGID_4_" gradientUnits="userSpaceOnUse" x1="475.2545" y1="80.6215" x2="477.6297" y2="-16.5657">
			<stop  offset="0" style="stop-color:#0A6343"/>
			<stop  offset="0.1472" style="stop-color:#0F6543"/>
			<stop  offset="0.3145" style="stop-color:#1C6D43"/>
			<stop  offset="0.4917" style="stop-color:#337943"/>
			<stop  offset="0.6757" style="stop-color:#538943"/>
			<stop  offset="0.8632" style="stop-color:#7C9F43"/>
			<stop  offset="1" style="stop-color:#9EB143"/>
		</linearGradient>
		<path class="st10" d="M491.9,72.9L461,80.3v-90.7c0-3.3,3-5.9,6.7-5.9h17.5c3.7,0,6.7,2.6,6.7,5.9V72.9z"/>
		<linearGradient id="SVGID_5_" gradientUnits="userSpaceOnUse" x1="437.8818" y1="89.6831" x2="439.6459" y2="17.5034">
			<stop  offset="0" style="stop-color:#0A6343"/>
			<stop  offset="0.2231" style="stop-color:#0D6946"/>
			<stop  offset="0.5097" style="stop-color:#14794E"/>
			<stop  offset="0.8297" style="stop-color:#20935B"/>
			<stop  offset="0.9334" style="stop-color:#259D60"/>
		</linearGradient>
		<path class="st11" d="M454.1,82.5l-30.9,6.8l0.2-67.3c0-2.4,3-4.3,6.6-4.3h17.4c3.7,0,6.6,1.9,6.6,4.3V82.5z"/>
		<linearGradient id="SVGID_6_" gradientUnits="userSpaceOnUse" x1="428.2963" y1="-9.2525" x2="599.4475" y2="-9.2525">
			<stop  offset="0" style="stop-color:#0A6343"/>
			<stop  offset="0.2368" style="stop-color:#0D6A46"/>
			<stop  offset="0.5832" style="stop-color:#177E50"/>
			<stop  offset="0.9954" style="stop-color:#269E60"/>
			<stop  offset="1" style="stop-color:#269E60"/>
		</linearGradient>
		<path class="st12" d="M599.4-82.7l-12.7-10.9c0,0-15,35.6-22.4,44.1l-26.1-21.1l-12.8,7.4l35.8,29.7c-3.8,5.1-10,12-17.1,19.8
			c-9.6,10.6-22.8,21.9-45.3,40c-16.4,13.2-37.4,33.7-70.6,48.7c18.1-8.2,42.5-20.2,68.4-37.8c25.9-17.4,44.9-36.1,58-51
			c9.7-11.1,20.1-24.7,30-41.2C590.5-64.5,595.4-73.9,599.4-82.7z"/>
		<path class="st13" d="M373.2,81c0,0,35.6,23.5,99.2-0.6c57.4-21.7,101.2-28.9,133.1-14.1c-41.7-25.5-88.5-8.6-112.4-0.5
			c-22.4,7.6-47,23.2-85.2,21.7C393.4,87,380.9,83.2,373.2,81z"/>
		<path class="st13" d="M599.4-82.7l-5.2,14.6c-8.7,23.6-35.9,64.2-89.3,105.5C453.9,76.7,399.4,83,373.2,81
			c38.7-2.3,66.9-5.8,127.7-50.2C557-10.3,587.1-58,599.4-82.7z"/>
	</g>
</g>
</svg>
